<mxfile host="app.diagrams.net" agent="Mozilla/5.0 (Windows NT 10.0; Win64; x64) AppleWebKit/537.36 (KHTML, like Gecko) Chrome/128.0.0.0 Safari/537.36 OPR/114.0.0.0" version="24.8.3">
  <diagram name="Page-1" id="JjPuVGME8Az4njuQy57E">
    <mxGraphModel dx="188" dy="450" grid="1" gridSize="10" guides="1" tooltips="1" connect="1" arrows="1" fold="1" page="1" pageScale="1" pageWidth="827" pageHeight="1169" background="#FFE599" math="0" shadow="0">
      <root>
        <mxCell id="0" />
        <mxCell id="1" parent="0" />
        <mxCell id="dXMugoT1VAeTOwknhtjO-1" value="Inicio" style="strokeWidth=2;html=1;shape=mxgraph.flowchart.start_1;whiteSpace=wrap;fontFamily=Georgia;fontStyle=1;labelBackgroundColor=none;fillColor=#F2CC8F;strokeColor=#E07A5F;fontColor=#393C56;" vertex="1" parent="1">
          <mxGeometry x="310" y="90" width="100" height="60" as="geometry" />
        </mxCell>
        <mxCell id="dXMugoT1VAeTOwknhtjO-2" value="Fim" style="strokeWidth=2;html=1;shape=mxgraph.flowchart.start_1;whiteSpace=wrap;fontFamily=Georgia;fontStyle=1;labelBackgroundColor=none;fillColor=#F2CC8F;strokeColor=#E07A5F;fontColor=#393C56;" vertex="1" parent="1">
          <mxGeometry x="314" y="830" width="100" height="60" as="geometry" />
        </mxCell>
        <mxCell id="dXMugoT1VAeTOwknhtjO-3" value="¨Digite a idade¨" style="strokeWidth=2;html=1;shape=mxgraph.flowchart.display;whiteSpace=wrap;fontFamily=Georgia;fontStyle=1;labelBackgroundColor=none;fillColor=#F2CC8F;strokeColor=#E07A5F;fontColor=#393C56;" vertex="1" parent="1">
          <mxGeometry x="310" y="180" width="100" height="60" as="geometry" />
        </mxCell>
        <mxCell id="dXMugoT1VAeTOwknhtjO-4" value="Idade (int)" style="html=1;strokeWidth=2;shape=manualInput;whiteSpace=wrap;rounded=1;size=26;arcSize=11;fontFamily=Georgia;fontStyle=1;labelBackgroundColor=none;fillColor=#F2CC8F;strokeColor=#E07A5F;fontColor=#393C56;" vertex="1" parent="1">
          <mxGeometry x="310" y="270" width="100" height="60" as="geometry" />
        </mxCell>
        <mxCell id="dXMugoT1VAeTOwknhtjO-5" value="Idade &amp;gt;= 18&lt;br&gt;?" style="strokeWidth=2;html=1;shape=mxgraph.flowchart.decision;whiteSpace=wrap;fontFamily=Georgia;fontStyle=1;labelBackgroundColor=none;fillColor=#F2CC8F;strokeColor=#E07A5F;fontColor=#393C56;" vertex="1" parent="1">
          <mxGeometry x="310" y="350" width="100" height="100" as="geometry" />
        </mxCell>
        <mxCell id="dXMugoT1VAeTOwknhtjO-6" value="" style="strokeWidth=2;html=1;shape=mxgraph.flowchart.start_2;whiteSpace=wrap;fontFamily=Georgia;fontStyle=1;labelBackgroundColor=none;fillColor=#F2CC8F;strokeColor=#E07A5F;fontColor=#393C56;" vertex="1" parent="1">
          <mxGeometry x="344" y="770" width="40" height="30" as="geometry" />
        </mxCell>
        <mxCell id="dXMugoT1VAeTOwknhtjO-7" value="¨Senior¨" style="strokeWidth=2;html=1;shape=mxgraph.flowchart.display;whiteSpace=wrap;fontFamily=Georgia;fontStyle=1;labelBackgroundColor=none;fillColor=#F2CC8F;strokeColor=#E07A5F;fontColor=#393C56;" vertex="1" parent="1">
          <mxGeometry x="450" y="510" width="100" height="60" as="geometry" />
        </mxCell>
        <mxCell id="dXMugoT1VAeTOwknhtjO-8" style="edgeStyle=orthogonalEdgeStyle;rounded=0;orthogonalLoop=1;jettySize=auto;html=1;exitX=1;exitY=0.5;exitDx=0;exitDy=0;exitPerimeter=0;strokeColor=#E07A5F;fontColor=#393C56;fillColor=#F2CC8F;" edge="1" parent="1" source="dXMugoT1VAeTOwknhtjO-9" target="dXMugoT1VAeTOwknhtjO-12">
          <mxGeometry relative="1" as="geometry" />
        </mxCell>
        <mxCell id="dXMugoT1VAeTOwknhtjO-9" value="Idade &amp;lt;10&lt;br&gt;?" style="strokeWidth=2;html=1;shape=mxgraph.flowchart.decision;whiteSpace=wrap;fontFamily=Georgia;fontStyle=1;labelBackgroundColor=none;fillColor=#F2CC8F;strokeColor=#E07A5F;fontColor=#393C56;" vertex="1" parent="1">
          <mxGeometry x="150" y="490" width="100" height="100" as="geometry" />
        </mxCell>
        <mxCell id="dXMugoT1VAeTOwknhtjO-10" value="Verdadeiro" style="text;html=1;align=center;verticalAlign=middle;resizable=0;points=[];autosize=1;strokeColor=none;fillColor=none;fontFamily=Georgia;fontStyle=1;labelBackgroundColor=none;fontColor=#393C56;" vertex="1" parent="1">
          <mxGeometry x="430" y="370" width="80" height="30" as="geometry" />
        </mxCell>
        <mxCell id="dXMugoT1VAeTOwknhtjO-11" value="Falso" style="text;html=1;align=center;verticalAlign=middle;resizable=0;points=[];autosize=1;strokeColor=none;fillColor=none;fontFamily=Georgia;fontStyle=1;labelBackgroundColor=none;fontColor=#393C56;" vertex="1" parent="1">
          <mxGeometry x="170" y="370" width="50" height="30" as="geometry" />
        </mxCell>
        <mxCell id="dXMugoT1VAeTOwknhtjO-12" value="¨Infantil¨" style="strokeWidth=2;html=1;shape=mxgraph.flowchart.display;whiteSpace=wrap;fontFamily=Georgia;fontStyle=1;labelBackgroundColor=none;fillColor=#F2CC8F;strokeColor=#E07A5F;fontColor=#393C56;" vertex="1" parent="1">
          <mxGeometry x="250" y="620" width="100" height="60" as="geometry" />
        </mxCell>
        <mxCell id="dXMugoT1VAeTOwknhtjO-13" value="¨Teen¨" style="strokeWidth=2;html=1;shape=mxgraph.flowchart.display;whiteSpace=wrap;fontFamily=Georgia;fontStyle=1;labelBackgroundColor=none;fillColor=#F2CC8F;strokeColor=#E07A5F;fontColor=#393C56;" vertex="1" parent="1">
          <mxGeometry x="40" y="620" width="100" height="60" as="geometry" />
        </mxCell>
        <mxCell id="dXMugoT1VAeTOwknhtjO-14" value="" style="strokeWidth=2;html=1;shape=mxgraph.flowchart.start_2;whiteSpace=wrap;fontFamily=Georgia;fontStyle=1;labelBackgroundColor=none;fillColor=#F2CC8F;strokeColor=#E07A5F;fontColor=#393C56;" vertex="1" parent="1">
          <mxGeometry x="180" y="710" width="40" height="30" as="geometry" />
        </mxCell>
        <mxCell id="dXMugoT1VAeTOwknhtjO-15" style="edgeStyle=orthogonalEdgeStyle;rounded=0;orthogonalLoop=1;jettySize=auto;html=1;exitX=0.5;exitY=1;exitDx=0;exitDy=0;exitPerimeter=0;entryX=0.5;entryY=0;entryDx=0;entryDy=0;entryPerimeter=0;strokeColor=#E07A5F;fontColor=#393C56;fillColor=#F2CC8F;" edge="1" parent="1" source="dXMugoT1VAeTOwknhtjO-1" target="dXMugoT1VAeTOwknhtjO-3">
          <mxGeometry relative="1" as="geometry" />
        </mxCell>
        <mxCell id="dXMugoT1VAeTOwknhtjO-16" style="edgeStyle=orthogonalEdgeStyle;rounded=0;orthogonalLoop=1;jettySize=auto;html=1;exitX=0.5;exitY=1;exitDx=0;exitDy=0;exitPerimeter=0;entryX=0.5;entryY=0.167;entryDx=0;entryDy=0;entryPerimeter=0;strokeColor=#E07A5F;fontColor=#393C56;fillColor=#F2CC8F;" edge="1" parent="1" source="dXMugoT1VAeTOwknhtjO-3" target="dXMugoT1VAeTOwknhtjO-4">
          <mxGeometry relative="1" as="geometry" />
        </mxCell>
        <mxCell id="dXMugoT1VAeTOwknhtjO-17" style="edgeStyle=orthogonalEdgeStyle;rounded=0;orthogonalLoop=1;jettySize=auto;html=1;exitX=0.5;exitY=1;exitDx=0;exitDy=0;entryX=0.5;entryY=0;entryDx=0;entryDy=0;entryPerimeter=0;strokeColor=#E07A5F;fontColor=#393C56;fillColor=#F2CC8F;" edge="1" parent="1" source="dXMugoT1VAeTOwknhtjO-4" target="dXMugoT1VAeTOwknhtjO-5">
          <mxGeometry relative="1" as="geometry" />
        </mxCell>
        <mxCell id="dXMugoT1VAeTOwknhtjO-18" style="edgeStyle=orthogonalEdgeStyle;rounded=0;orthogonalLoop=1;jettySize=auto;html=1;exitX=1;exitY=0.5;exitDx=0;exitDy=0;exitPerimeter=0;entryX=0.5;entryY=0;entryDx=0;entryDy=0;entryPerimeter=0;strokeColor=#E07A5F;fontColor=#393C56;fillColor=#F2CC8F;" edge="1" parent="1" source="dXMugoT1VAeTOwknhtjO-5" target="dXMugoT1VAeTOwknhtjO-7">
          <mxGeometry relative="1" as="geometry" />
        </mxCell>
        <mxCell id="dXMugoT1VAeTOwknhtjO-19" style="edgeStyle=orthogonalEdgeStyle;rounded=0;orthogonalLoop=1;jettySize=auto;html=1;exitX=0;exitY=0.5;exitDx=0;exitDy=0;exitPerimeter=0;entryX=0.5;entryY=0;entryDx=0;entryDy=0;entryPerimeter=0;strokeColor=#E07A5F;fontColor=#393C56;fillColor=#F2CC8F;" edge="1" parent="1" source="dXMugoT1VAeTOwknhtjO-5" target="dXMugoT1VAeTOwknhtjO-9">
          <mxGeometry relative="1" as="geometry" />
        </mxCell>
        <mxCell id="dXMugoT1VAeTOwknhtjO-20" style="edgeStyle=orthogonalEdgeStyle;rounded=0;orthogonalLoop=1;jettySize=auto;html=1;exitX=0;exitY=0.5;exitDx=0;exitDy=0;exitPerimeter=0;entryX=0.5;entryY=0;entryDx=0;entryDy=0;entryPerimeter=0;strokeColor=#E07A5F;fontColor=#393C56;fillColor=#F2CC8F;" edge="1" parent="1" source="dXMugoT1VAeTOwknhtjO-9" target="dXMugoT1VAeTOwknhtjO-13">
          <mxGeometry relative="1" as="geometry" />
        </mxCell>
        <mxCell id="dXMugoT1VAeTOwknhtjO-21" style="edgeStyle=orthogonalEdgeStyle;rounded=0;orthogonalLoop=1;jettySize=auto;html=1;exitX=0.5;exitY=1;exitDx=0;exitDy=0;exitPerimeter=0;entryX=0;entryY=0.5;entryDx=0;entryDy=0;entryPerimeter=0;strokeColor=#E07A5F;fontColor=#393C56;fillColor=#F2CC8F;" edge="1" parent="1" source="dXMugoT1VAeTOwknhtjO-13" target="dXMugoT1VAeTOwknhtjO-14">
          <mxGeometry relative="1" as="geometry" />
        </mxCell>
        <mxCell id="dXMugoT1VAeTOwknhtjO-22" style="edgeStyle=orthogonalEdgeStyle;rounded=0;orthogonalLoop=1;jettySize=auto;html=1;exitX=0.5;exitY=1;exitDx=0;exitDy=0;exitPerimeter=0;entryX=1;entryY=0.5;entryDx=0;entryDy=0;entryPerimeter=0;strokeColor=#E07A5F;fontColor=#393C56;fillColor=#F2CC8F;" edge="1" parent="1" source="dXMugoT1VAeTOwknhtjO-12" target="dXMugoT1VAeTOwknhtjO-14">
          <mxGeometry relative="1" as="geometry" />
        </mxCell>
        <mxCell id="dXMugoT1VAeTOwknhtjO-23" style="edgeStyle=orthogonalEdgeStyle;rounded=0;orthogonalLoop=1;jettySize=auto;html=1;exitX=0.5;exitY=1;exitDx=0;exitDy=0;exitPerimeter=0;entryX=1;entryY=0.5;entryDx=0;entryDy=0;entryPerimeter=0;strokeColor=#E07A5F;fontColor=#393C56;fillColor=#F2CC8F;" edge="1" parent="1" source="dXMugoT1VAeTOwknhtjO-7" target="dXMugoT1VAeTOwknhtjO-6">
          <mxGeometry relative="1" as="geometry" />
        </mxCell>
        <mxCell id="dXMugoT1VAeTOwknhtjO-24" style="edgeStyle=orthogonalEdgeStyle;rounded=0;orthogonalLoop=1;jettySize=auto;html=1;exitX=0.5;exitY=1;exitDx=0;exitDy=0;exitPerimeter=0;entryX=0;entryY=0.5;entryDx=0;entryDy=0;entryPerimeter=0;strokeColor=#E07A5F;fontColor=#393C56;fillColor=#F2CC8F;" edge="1" parent="1" source="dXMugoT1VAeTOwknhtjO-14" target="dXMugoT1VAeTOwknhtjO-6">
          <mxGeometry relative="1" as="geometry" />
        </mxCell>
        <mxCell id="dXMugoT1VAeTOwknhtjO-25" style="edgeStyle=orthogonalEdgeStyle;rounded=0;orthogonalLoop=1;jettySize=auto;html=1;exitX=0.5;exitY=1;exitDx=0;exitDy=0;exitPerimeter=0;entryX=0.5;entryY=0;entryDx=0;entryDy=0;entryPerimeter=0;strokeColor=#E07A5F;fontColor=#393C56;fillColor=#F2CC8F;" edge="1" parent="1" source="dXMugoT1VAeTOwknhtjO-6" target="dXMugoT1VAeTOwknhtjO-2">
          <mxGeometry relative="1" as="geometry" />
        </mxCell>
        <mxCell id="dXMugoT1VAeTOwknhtjO-26" value="Verdadeiro" style="text;html=1;align=center;verticalAlign=middle;resizable=0;points=[];autosize=1;strokeColor=none;fillColor=none;fontFamily=Georgia;fontStyle=1;labelBackgroundColor=none;fontColor=#393C56;" vertex="1" parent="1">
          <mxGeometry x="260" y="510" width="80" height="30" as="geometry" />
        </mxCell>
        <mxCell id="dXMugoT1VAeTOwknhtjO-27" value="Falso" style="text;html=1;align=center;verticalAlign=middle;resizable=0;points=[];autosize=1;strokeColor=none;fillColor=none;fontFamily=Georgia;fontStyle=1;labelBackgroundColor=none;fontColor=#393C56;" vertex="1" parent="1">
          <mxGeometry x="65" y="510" width="50" height="30" as="geometry" />
        </mxCell>
        <mxCell id="dXMugoT1VAeTOwknhtjO-28" value="&lt;font color=&quot;#ff00ff&quot;&gt;print&lt;/font&gt;(&lt;span style=&quot;color: rgb(51, 255, 51);&quot;&gt;¨Digite a Idade:¨&lt;/span&gt;)" style="text;html=1;align=center;verticalAlign=middle;resizable=0;points=[];autosize=1;strokeColor=none;fillColor=none;fontFamily=Georgia;fontStyle=1;labelBackgroundColor=none;fontColor=#393C56;" vertex="1" parent="1">
          <mxGeometry x="605" y="180" width="150" height="30" as="geometry" />
        </mxCell>
        <mxCell id="dXMugoT1VAeTOwknhtjO-29" value="idade=&lt;font color=&quot;#ff00ff&quot;&gt;int&lt;/font&gt;(&lt;font color=&quot;#ff00ff&quot;&gt;input&lt;/font&gt;())" style="text;html=1;align=center;verticalAlign=middle;resizable=0;points=[];autosize=1;strokeColor=none;fillColor=none;fontFamily=Georgia;fontStyle=1;labelBackgroundColor=none;fontColor=#393C56;" vertex="1" parent="1">
          <mxGeometry x="610" y="280" width="120" height="30" as="geometry" />
        </mxCell>
        <mxCell id="dXMugoT1VAeTOwknhtjO-30" value="&lt;font color=&quot;#ff8000&quot;&gt;if&lt;/font&gt; idade&amp;gt;=18;&lt;div&gt;&amp;nbsp; &amp;nbsp; &amp;nbsp; &amp;nbsp; &amp;nbsp; &amp;nbsp; &amp;nbsp;print(&lt;span style=&quot;color: rgb(51, 255, 51); background-color: initial;&quot;&gt;¨Infantil¨&lt;/span&gt;&lt;span style=&quot;background-color: initial;&quot;&gt;)&lt;/span&gt;&lt;/div&gt;&lt;div&gt;&lt;span style=&quot;background-color: initial; color: rgb(255, 128, 0);&quot;&gt;else&lt;/span&gt;&lt;span style=&quot;background-color: initial;&quot;&gt;:&amp;nbsp; &amp;nbsp; &amp;nbsp; &amp;nbsp; &amp;nbsp; &amp;nbsp; &amp;nbsp; &amp;nbsp; &amp;nbsp;&lt;/span&gt;&lt;/div&gt;&lt;div&gt;&amp;nbsp; &amp;nbsp; &amp;nbsp; &amp;nbsp;&lt;span style=&quot;color: rgb(255, 128, 0);&quot;&gt;if&lt;/span&gt;&amp;nbsp;idade &amp;lt;10:&lt;/div&gt;&lt;div&gt;&amp;nbsp; &amp;nbsp; &amp;nbsp; &amp;nbsp; &amp;nbsp; &amp;nbsp; &amp;nbsp; &amp;nbsp; &amp;nbsp; &amp;nbsp; &amp;nbsp; &amp;nbsp; &amp;nbsp; &amp;nbsp;&amp;nbsp;&lt;span style=&quot;color: rgb(255, 0, 255);&quot;&gt;print&lt;/span&gt;(&lt;span style=&quot;color: rgb(51, 255, 51);&quot;&gt;¨Teen¨&lt;/span&gt;)&lt;/div&gt;&lt;div&gt;&lt;span style=&quot;color: rgb(255, 128, 0); background-color: initial;&quot;&gt;else&lt;/span&gt;:&amp;nbsp; &amp;nbsp; &amp;nbsp; &amp;nbsp; &amp;nbsp;&lt;br&gt;&amp;nbsp; &amp;nbsp; &amp;nbsp; &amp;nbsp; &amp;nbsp; &amp;nbsp; &amp;nbsp; &amp;nbsp; &amp;nbsp; &amp;nbsp; &amp;nbsp; &amp;nbsp;&amp;nbsp;&lt;span style=&quot;color: rgb(255, 0, 255);&quot;&gt;print&lt;/span&gt;(&lt;span style=&quot;color: rgb(51, 255, 51);&quot;&gt;¨Senior¨&lt;/span&gt;)&lt;/div&gt;" style="text;html=1;align=center;verticalAlign=middle;resizable=0;points=[];autosize=1;strokeColor=none;fillColor=none;fontFamily=Georgia;fontStyle=1;labelBackgroundColor=none;fontColor=#393C56;" vertex="1" parent="1">
          <mxGeometry x="565" y="420" width="180" height="110" as="geometry" />
        </mxCell>
      </root>
    </mxGraphModel>
  </diagram>
</mxfile>
